<?xml version="1.0" encoding="utf-8"?>
<svg version="1.1" xmlns="http://www.w3.org/2000/svg" x="0px" y="0px" width="800px" height="800px" viewBox="0 0 800 800">
<g>
<polyline fill="none" stroke="#000000" points="400.00,40.00 711.77,580.00 88.23,580.00 400.00,40.00 760.00,400.00 400.00,760.00 40.00,400.00 400.00,40.00 742.38,288.75 611.60,691.25 188.40,691.25 57.62,288.75 400.00,40.00 711.77,220.00 711.77,580.00 400.00,760.00 88.23,580.00 88.23,220.00 400.00,40.00 400.00,40.00 681.46,175.54 750.97,480.11 556.20,724.35 243.80,724.35 49.03,480.11 118.54,175.54 400.00,40.00 400.00,40.00 654.56,145.44 760.00,400.00 654.56,654.56 400.00,760.00 145.44,654.56 40.00,400.00 145.44,145.44 400.00,40.00 400.00,40.00 631.40,124.22 754.53,337.49 711.77,580.00 523.13,738.29 276.87,738.29 88.23,580.00 45.47,337.49 168.60,124.22 400.00,40.00 400.00,40.00 611.60,108.75 742.38,288.75 742.38,511.25 611.60,691.25 400.00,760.00 188.40,691.25 57.62,511.25 57.62,288.75 188.40,108.75 400.00,40.00 594.63,97.15 727.47,250.45 756.34,451.23 672.07,635.75 501.42,745.42 298.58,745.42 127.93,635.75 43.66,451.23 72.53,250.45 205.37,97.15 400.00,40.00 400.00,40.00 580.00,88.23 711.77,220.00 760.00,400.00 711.77,580.00 580.00,711.77 400.00,760.00 220.00,711.77 88.23,580.00 40.00,400.00 88.23,220.00 220.00,88.23 400.00,40.00 400.00,40.00 567.30,81.24 696.27,195.50 757.38,356.61 736.61,527.66 638.72,669.46 486.15,749.54 313.85,749.54 161.28,669.46 63.39,527.66 42.62,356.61 103.73,195.50 232.70,81.24 400.00,40.00 556.20,75.65 681.46,175.54 750.97,319.89 750.97,480.11 681.46,624.46 556.20,724.35 400.00,760.00 243.80,724.35 118.54,624.46 49.03,480.11 49.03,319.89 118.54,175.54 243.80,75.65 400.00,40.00 546.43,71.12 667.53,159.11 742.38,288.75 758.03,437.63 711.77,580.00 611.60,691.25 474.85,752.13 325.15,752.13 188.40,691.25 88.23,580.00 41.97,437.63 57.62,288.75 132.47,159.11 253.57,71.12 400.00,40.00 537.77,67.40 654.56,145.44 732.60,262.23 760.00,400.00 732.60,537.77 654.56,654.56 537.77,732.60 400.00,760.00 262.23,732.60 145.44,654.56 67.40,537.77 40.00,400.00 67.40,262.23 145.44,145.44 262.23,67.40 400.00,40.00 530.05,64.31 642.53,133.96 722.26,239.53 758.46,366.78 746.26,498.52 687.29,616.95 589.52,706.08 466.15,753.87 333.85,753.87 210.48,706.08 112.71,616.95 53.74,498.52 41.54,366.78 77.74,239.53 157.47,133.96 269.95,64.31 400.00,40.00 523.13,61.71 631.40,124.22 711.77,220.00 754.53,337.49 754.53,462.51 711.77,580.00 631.40,675.78 523.13,738.29 400.00,760.00 276.87,738.29 168.60,675.78 88.23,580.00 45.47,462.51 45.47,337.49 88.23,220.00 168.60,124.22 276.87,61.71 400.00,40.00 400.00,40.00 516.89,59.51 621.12,115.91 701.38,203.10 748.98,311.63 758.77,429.73 729.68,544.61 664.86,643.82 571.34,716.61 459.25,755.09 340.75,755.09 228.66,716.61 135.14,643.82 70.32,544.61 41.23,429.73 51.02,311.62 98.62,203.10 178.88,115.91 283.11,59.51 400.00,40.00 511.25,57.62 611.60,108.75 691.25,188.40 742.38,288.75 760.00,400.00 742.38,511.25 691.25,611.60 611.60,691.25 511.25,742.38 400.00,760.00 288.75,742.38 188.40,691.25 108.75,611.60 57.62,511.25 40.00,400.00 57.62,288.75 108.75,188.40 188.40,108.75 288.75,57.62 400.00,40.00 506.11,55.99 602.80,102.55 681.46,175.54 735.11,268.48 758.99,373.10 750.97,480.11 711.77,580.00 644.86,663.90 556.20,724.35 453.66,755.98 346.34,755.98 243.80,724.35 155.14,663.90 88.23,580.00 49.03,480.11 41.01,373.10 64.89,268.48 118.54,175.54 197.20,102.55 293.89,55.99 400.00,40.00 400.00,40.00 501.42,54.58 594.63,97.15 672.07,164.25 727.47,250.45 756.34,348.77 756.34,451.23 727.47,549.55 672.07,635.75 594.63,702.85 501.42,745.42 400.00,760.00 298.58,745.42 205.37,702.85 127.93,635.75 72.53,549.55 43.66,451.23 43.66,348.77 72.53,250.45 127.93,164.25 205.37,97.15 298.58,54.58 400.00,40.00 400.00,40.00 497.13,53.35 587.05,92.41 663.10,154.28 719.64,234.38 752.47,326.76 759.16,424.57 739.21,520.56 694.11,607.60 627.19,679.26 543.42,730.20 449.02,756.65 350.98,756.65 256.58,730.20 172.81,679.26 105.89,607.60 60.79,520.56 40.84,424.57 47.53,326.76 80.36,234.38 136.90,154.28 212.95,92.41 302.87,53.35 400.00,40.00 400.00,40.00 493.17,52.27 580.00,88.23 654.56,145.44 711.77,220.00 747.73,306.83 760.00,400.00 747.73,493.17 711.77,580.00 654.56,654.56 580.00,711.77 493.17,747.73 400.00,760.00 306.83,747.73 220.00,711.77 145.44,654.56 88.23,580.00 52.27,493.17 40.00,400.00 52.27,306.83 88.23,220.00 145.44,145.44 220.00,88.23 306.82,52.27 400.00,40.00 400.00,40.00 489.53,51.31 573.43,84.53 646.44,137.57 703.96,207.10 742.38,288.75 759.29,377.40 753.62,467.46 725.74,553.28 677.38,629.47 611.60,691.25 532.52,734.72 445.12,757.16 354.88,757.16 267.47,734.72 188.40,691.25 122.62,629.47 74.26,553.28 46.38,467.46 40.71,377.40 57.62,288.75 96.04,207.10 153.56,137.57 226.57,84.53 310.47,51.31 400.00,40.00 486.15,50.46 567.30,81.24 638.72,130.54 696.27,195.50 736.61,272.34 757.38,356.61 757.38,443.39 736.61,527.66 696.27,604.50 638.72,669.46 567.30,718.76 486.15,749.54 400.00,760.00 313.85,749.54 232.70,718.76 161.28,669.46 103.73,604.50 63.39,527.66 42.62,443.39 42.62,356.61 63.39,272.34 103.73,195.50 161.28,130.54 232.70,81.24 313.85,50.46 400.00,40.00 483.02,49.70 561.57,78.29 631.40,124.22 688.76,185.02 730.56,257.41 754.53,337.49 759.39,420.93 744.88,503.25 711.77,580.00 661.85,647.05 597.82,700.78 523.13,738.29 441.79,757.57 358.21,757.57 276.87,738.29 202.18,700.78 138.15,647.05 88.23,580.00 55.12,503.25 40.61,420.93 45.47,337.49 69.44,257.41 111.24,185.02 168.60,124.22 238.43,78.29 316.98,49.70 400.00,40.00 400.00,40.00 480.11,49.03 556.20,75.65 624.46,118.54 681.46,175.54 724.35,243.80 750.97,319.89 760.00,400.00 750.97,480.11 724.35,556.20 681.46,624.46 624.46,681.46 556.20,724.35 480.11,750.97 400.00,760.00 319.89,750.97 243.80,724.35 175.54,681.46 118.54,624.46 75.65,556.20 49.03,480.11 40.00,400.00 49.03,319.89 75.65,243.80 118.54,175.54 175.54,118.54 243.80,75.65 319.89,49.03 400.00,40.00 477.39,48.42 551.16,73.27 617.86,113.41 674.38,166.94 718.06,231.37 746.88,303.69 759.47,380.51 755.26,458.24 734.43,533.25 697.97,602.03 647.57,661.36 585.60,708.47 514.95,741.16 438.92,757.89 361.08,757.89 285.05,741.16 214.40,708.47 152.43,661.36 102.03,602.03 65.57,533.25 44.74,458.24 40.53,380.51 53.12,303.69 81.94,231.37 125.62,166.94 182.14,113.41 248.84,73.27 322.61,48.42 400.00,40.00 400.00,40.00 474.85,47.87 546.43,71.12 611.60,108.75 667.53,159.11 711.77,220.00 742.38,288.75 758.03,362.37 758.03,437.63 742.38,511.25 711.77,580.00 667.53,640.89 611.60,691.25 546.43,728.88 474.85,752.13 400.00,760.00 325.15,752.13 253.57,728.88 188.40,691.25 132.47,640.89 88.23,580.00 57.62,511.25 41.97,437.63 41.97,362.37 57.62,288.75 88.23,220.00 132.47,159.11 188.40,108.75 253.57,71.12 325.15,47.87 400.00,40.00 400.00,40.00 472.47,47.37 541.97,69.18 605.66,104.53 660.93,151.97 705.51,209.57 737.59,274.97 755.85,345.49 759.54,418.23 748.51,490.23 723.21,558.54 684.68,620.36 634.49,673.15 574.71,714.76 507.77,743.49 436.42,758.15 363.58,758.15 292.23,743.49 225.29,714.76 165.51,673.15 115.32,620.36 76.79,558.54 51.49,490.23 40.46,418.23 44.15,345.49 62.41,274.97 94.49,209.57 139.07,151.97 194.34,104.52 258.03,69.18 327.53,47.37 400.00,40.00 470.23,46.92 537.77,67.40 600.01,100.67 654.56,145.44 699.33,199.99 732.60,262.23 753.08,329.77 760.00,400.00 753.08,470.23 732.60,537.77 699.33,600.01 654.56,654.56 600.01,699.33 537.77,732.60 470.23,753.08 400.00,760.00 329.77,753.08 262.23,732.60 199.99,699.33 145.44,654.56 100.67,600.01 67.40,537.77 46.92,470.23 40.00,400.00 46.92,329.77 67.40,262.23 100.67,199.99 145.44,145.44 200.00,100.67 262.23,67.40 329.77,46.92 400.00,40.00 468.13,46.51 533.80,65.79 594.63,97.15 648.43,139.46 693.25,191.18 727.47,250.45 749.85,315.13 759.59,382.87 756.34,451.23 740.20,517.74 711.77,580.00 672.07,635.75 622.54,682.98 564.96,719.98 501.42,745.42 434.22,758.37 365.78,758.37 298.58,745.42 235.04,719.98 177.46,682.98 127.93,635.75 88.23,580.00 59.80,517.74 43.66,451.23 40.41,382.87 50.15,315.13 72.53,250.45 106.75,191.18 151.57,139.46 205.37,97.15 266.20,65.79 331.87,46.51 400.00,40.00 466.15,46.13 530.05,64.31 589.52,93.92 642.53,133.96 687.29,183.05 722.26,239.53 746.26,301.48 758.46,366.78 758.46,433.22 746.26,498.52 722.26,560.47 687.29,616.95 642.53,666.04 589.52,706.08 530.05,735.69 466.15,753.87 400.00,760.00 333.85,753.87 269.95,735.69 210.48,706.08 157.47,666.04 112.71,616.95 77.74,560.47 53.74,498.52 41.54,433.22 41.54,366.78 53.74,301.48 77.74,239.53 112.71,183.05 157.47,133.96 210.48,93.92 269.95,64.31 333.85,46.13 400.00,40.00 464.28,45.79 526.49,62.96 584.64,90.96 636.86,128.89 681.46,175.54 717.01,229.41 742.38,288.75 756.74,351.68 759.64,416.15 750.97,480.11 731.03,541.49 700.45,598.32 660.21,648.78 611.60,691.25 556.20,724.35 495.77,747.03 432.27,758.55 367.73,758.55 304.23,747.03 243.80,724.35 188.40,691.25 139.79,648.78 99.55,598.32 68.97,541.49 49.03,480.11 40.36,416.15 43.26,351.68 57.62,288.75 82.99,229.41 118.54,175.54 163.14,128.89 215.36,90.96 273.51,62.96 335.72,45.79 400.00,40.00 462.51,45.47 523.13,61.71 580.00,88.23 631.40,124.22 675.78,168.60 711.77,220.00 738.29,276.87 754.53,337.49 760.00,400.00 754.53,462.51 738.29,523.13 711.77,580.00 675.78,631.40 631.40,675.78 580.00,711.77 523.13,738.29 462.51,754.53 400.00,760.00 337.49,754.53 276.87,738.29 220.00,711.77 168.60,675.78 124.22,631.40 88.23,580.00 61.71,523.13 45.47,462.51 40.00,400.00 45.47,337.49 61.71,276.87 88.23,220.00 124.22,168.60 168.60,124.22 220.00,88.23 276.87,61.71 337.49,45.47 400.00,40.00 400.00,40.00 460.84,45.18 519.93,60.56 575.57,85.71 626.16,119.91 670.24,162.16 706.55,211.25 734.04,265.77 751.92,324.16 759.68,384.72 757.08,445.73 744.22,505.42 721.45,562.07 689.44,614.07 649.10,659.90 601.59,698.26 548.28,728.04 490.71,748.38 430.53,758.70 369.47,758.70 309.29,748.38 251.72,728.04 198.41,698.26 150.90,659.90 110.56,614.07 78.55,562.07 55.78,505.42 42.92,445.73 40.32,384.72 48.08,324.16 65.96,265.77 93.45,211.25 129.76,162.16 173.84,119.91 224.43,85.71 280.07,60.56 339.16,45.18 400.00,40.00 459.25,44.91 516.89,59.51 571.34,83.39 621.12,115.91 664.86,156.18 701.38,203.10 729.68,255.39 748.98,311.63 758.77,370.27 758.77,429.73 748.98,488.37 729.68,544.61 701.38,596.90 664.86,643.82 621.12,684.09 571.34,716.61 516.89,740.49 459.25,755.09 400.00,760.00 340.75,755.09 283.11,740.49 228.66,716.61 178.88,684.09 135.14,643.82 98.62,596.90 70.32,544.61 51.02,488.37 41.23,429.73 41.23,370.27 51.02,311.62 70.32,255.39 98.62,203.10 135.14,156.18 178.88,115.91 228.66,83.39 283.11,59.51 340.75,44.91 400.00,40.00 457.75,44.66 514.00,58.53 567.30,81.24 616.27,112.20 659.63,150.62 696.27,195.50 725.24,245.67 745.79,299.84 757.38,356.61 759.71,414.50 752.72,472.01 736.61,527.66 711.77,580.00 678.86,627.68 638.72,669.46 592.41,704.27 541.11,731.19 486.15,749.54 428.97,758.83 371.03,758.83 313.85,749.54 258.89,731.19 207.59,704.27 161.28,669.46 121.14,627.68 88.23,580.00 63.39,527.66 47.28,472.01 40.29,414.50 42.62,356.61 54.21,299.84 74.76,245.67 103.73,195.50 140.37,150.62 183.73,112.20 232.70,81.24 286.00,58.53 342.25,44.66 400.00,40.00 456.32,44.43 511.25,57.62 563.44,79.24 611.60,108.75 654.56,145.44 691.25,188.40 720.76,236.56 742.38,288.75 755.57,343.68 760.00,400.00 755.57,456.32 742.38,511.25 720.76,563.44 691.25,611.60 654.56,654.56 611.60,691.25 563.44,720.76 511.25,742.38 456.32,755.57 400.00,760.00 343.68,755.57 288.75,742.38 236.56,720.76 188.40,691.25 145.44,654.56 108.75,611.60 79.24,563.44 57.62,511.25 44.43,456.32 40.00,400.00 44.43,343.68 57.62,288.75 79.24,236.56 108.75,188.40 145.44,145.44 188.40,108.75 236.56,79.24 288.75,57.62 343.68,44.43 400.00,40.00 454.95,44.22 508.62,56.78 559.74,77.38 607.11,105.55 649.64,140.61 686.31,181.76 716.26,228.02 738.81,278.31 753.42,331.46 759.74,386.21 757.62,441.29 747.13,495.39 728.50,547.26 702.17,595.68 668.76,639.52 629.05,677.74 583.97,709.45 534.57,733.90 482.03,750.53 427.56,758.94 372.44,758.94 317.97,750.53 265.43,733.90 216.03,709.45 170.95,677.74 131.24,639.52 97.83,595.68 71.50,547.27 52.87,495.39 42.38,441.29 40.26,386.21 46.58,331.46 61.19,278.31 83.74,228.02 113.69,181.76 150.36,140.61 192.88,105.55 240.26,77.38 291.38,56.78 345.05,44.22 400.00,40.00 400.00,40.00 453.66,44.02 506.11,55.99 556.20,75.65 602.80,102.55 644.86,136.10 681.46,175.54 711.77,220.00 735.11,268.48 750.97,319.89 758.99,373.10 758.99,426.90 750.97,480.11 735.11,531.52 711.77,580.00 681.46,624.46 644.86,663.90 602.80,697.45 556.20,724.35 506.11,744.01 453.66,755.98 400.00,760.00 346.35,755.98 293.89,744.01 243.80,724.35 197.21,697.45 155.14,663.90 118.54,624.46 88.23,580.00 64.89,531.52 49.03,480.11 41.01,426.90 41.01,373.10 49.03,319.89 64.89,268.48 88.23,220.00 118.54,175.54 155.14,136.10 197.20,102.55 243.80,75.65 293.89,55.99 346.34,44.02 400.00,40.00 400.00,40.00 452.42,43.84 503.72,55.26 552.80,74.04 598.64,99.76 640.23,131.88 676.71,169.72 707.29,212.46 731.32,259.20 748.29,308.94 757.84,360.63 759.76,413.15 754.01,465.39 740.72,516.24 720.16,564.61 692.78,609.47 659.17,649.87 620.02,684.94 576.19,713.94 528.60,736.25 478.27,751.39 426.28,759.04 373.72,759.04 321.73,751.39 271.40,736.25 223.81,713.94 179.98,684.94 140.83,649.87 107.22,609.47 79.84,564.61 59.28,516.24 45.99,465.39 40.24,413.15 42.16,360.63 51.71,308.94 68.68,259.20 92.71,212.46 123.29,169.72 159.76,131.88 201.36,99.76 247.20,74.04 296.28,55.26 347.58,43.84 400.00,40.00 400.00,40.00 451.23,43.66 501.42,54.58 549.55,72.53 594.63,97.15 635.75,127.93 672.07,164.25 702.85,205.37 727.47,250.45 745.42,298.58 756.34,348.77 760.00,400.00 756.34,451.23 745.42,501.42 727.47,549.55 702.85,594.63 672.07,635.75 635.75,672.07 594.63,702.85 549.55,727.47 501.42,745.42 451.23,756.34 400.00,760.00 348.77,756.34 298.58,745.42 250.45,727.47 205.37,702.85 164.25,672.07 127.93,635.75 97.15,594.63 72.53,549.55 54.58,501.42 43.66,451.23 40.00,400.00 43.66,348.77 54.58,298.58 72.53,250.45 97.15,205.37 127.93,164.25 164.25,127.93 205.37,97.15 250.45,72.53 298.58,54.58 348.77,43.66 400.00,40.00 450.10,43.50 499.23,53.95 546.43,71.12 590.77,94.70 631.40,124.22 667.53,159.11 698.45,198.69 723.57,242.19 742.38,288.75 754.53,337.49 759.78,387.44 758.03,437.63 749.31,487.09 733.79,534.86 711.77,580.00 683.68,621.64 650.08,658.96 611.60,691.25 569.01,717.86 523.13,738.29 474.85,752.13 425.11,759.12 374.89,759.12 325.15,752.13 276.87,738.29 230.99,717.86 188.40,691.25 149.92,658.96 116.32,621.64 88.23,580.00 66.21,534.86 50.69,487.09 41.97,437.63 40.22,387.44 45.47,337.49 57.62,288.75 76.43,242.19 101.55,198.69 132.47,159.11 168.60,124.22 209.23,94.70 253.58,71.12 300.77,53.95 349.90,43.50 400.00,40.00 449.02,43.35 497.13,53.35 543.42,69.80 587.05,92.41 627.19,120.74 663.10,154.28 694.11,192.40 719.64,234.38 739.21,279.44 752.47,326.76 759.16,375.43 759.16,424.57 752.47,473.24 739.21,520.56 719.64,565.62 694.11,607.60 663.10,645.72 627.19,679.26 587.05,707.59 543.42,730.20 497.13,746.65 449.02,756.65 400.00,760.00 350.98,756.65 302.87,746.65 256.58,730.20 212.95,707.59 172.81,679.26 136.90,645.72 105.89,607.60 80.36,565.62 60.79,520.56 47.53,473.24 40.84,424.57 40.84,375.43 47.53,326.76 60.79,279.44 80.36,234.38 105.89,192.40 136.90,154.28 172.81,120.74 212.95,92.41 256.58,69.80 302.87,53.35 350.98,43.35 400.00,40.00 400.00,40.00 447.98,43.21 495.11,52.79 540.54,68.57 583.46,90.26 623.11,117.47 658.78,149.73 689.83,186.46 715.70,226.99 735.95,270.61 750.19,316.54 758.19,363.97 759.80,412.03 754.99,459.88 743.84,506.66 726.55,551.54 703.44,593.71 674.91,632.43 641.48,666.99 603.74,696.80 562.36,721.31 518.09,740.08 471.71,752.79 424.05,759.20 375.95,759.20 328.29,752.79 281.91,740.08 237.64,721.31 196.26,696.80 158.52,666.99 125.08,632.43 96.56,593.71 73.45,551.54 56.16,506.66 45.01,459.88 40.20,412.03 41.81,363.97 49.81,316.54 64.05,270.61 84.30,226.99 110.17,186.46 141.22,149.73 176.89,117.47 216.54,90.26 259.46,68.57 304.89,52.79 352.02,43.21 400.00,40.00 400.00,40.00 446.99,43.08 493.17,52.27 537.77,67.40 580.00,88.23 619.15,114.39 654.56,145.44 685.61,180.85 711.77,220.00 732.60,262.23 747.73,306.83 756.92,353.01 760.00,400.00 756.92,446.99 747.73,493.17 732.60,537.77 711.77,580.00 685.61,619.15 654.56,654.56 619.15,685.61 580.00,711.77 537.77,732.60 493.17,747.73 446.99,756.92 400.00,760.00 353.01,756.92 306.83,747.73 262.23,732.60 220.00,711.77 180.85,685.61 145.44,654.56 114.39,619.15 88.23,580.00 67.40,537.77 52.27,493.17 43.08,446.99 40.00,400.00 43.08,353.01 52.27,306.82 67.40,262.23 88.23,220.00 114.39,180.85 145.44,145.44 180.85,114.39 220.00,88.23 262.23,67.40 306.83,52.27 353.01,43.08 400.00,40.00 446.04,42.96 491.32,51.77 535.10,66.31 576.66,86.33 615.32,111.49 650.45,141.39 681.46,175.54 707.85,213.38 729.19,254.28 745.12,297.57 755.39,342.54 759.82,388.46 758.34,434.57 750.97,480.11 737.85,524.33 719.18,566.51 695.26,605.96 666.50,642.03 633.36,674.12 596.39,701.71 556.20,724.35 513.44,741.66 468.82,753.36 423.07,759.26 376.93,759.26 331.18,753.36 286.56,741.66 243.80,724.35 203.61,701.71 166.64,674.12 133.50,642.03 104.74,605.96 80.82,566.51 62.15,524.33 49.03,480.11 41.66,434.57 40.18,388.46 44.61,342.54 54.88,297.57 70.81,254.28 92.15,213.38 118.54,175.54 149.55,141.39 184.68,111.49 223.34,86.33 264.90,66.31 308.68,51.77 353.96,42.96 400.00,40.00 400.00,40.00 445.12,42.84 489.53,51.31 532.52,65.28 573.43,84.53 611.60,108.75 646.44,137.57 677.38,170.53 703.96,207.10 725.74,246.72 742.38,288.75 753.62,332.54 759.29,377.40 759.29,422.60 753.62,467.46 742.38,511.25 725.74,553.28 703.96,592.90 677.38,629.47 646.44,662.43 611.60,691.25 573.43,715.47 532.52,734.72 489.53,748.69 445.12,757.16 400.00,760.00 354.88,757.16 310.47,748.69 267.47,734.72 226.57,715.47 188.40,691.25 153.56,662.43 122.61,629.47 96.04,592.90 74.26,553.28 57.62,511.25 46.38,467.46 40.71,422.60 40.71,377.39 46.38,332.54 57.62,288.75 74.26,246.72 96.04,207.10 122.62,170.53 153.56,137.57 188.40,108.75 226.57,84.53 267.48,65.28 310.47,51.31 354.88,42.84 400.00,40.00 444.24,42.73 487.81,50.87 530.05,64.31 570.31,82.84 608.00,106.17 642.53,133.96 673.39,165.78 700.10,201.15 722.26,239.53 739.54,280.35 751.67,322.98 758.46,366.78 759.83,411.09 755.74,455.22 746.26,498.52 731.53,540.32 711.77,580.00 687.29,616.95 658.45,650.61 625.69,680.47 589.52,706.08 550.47,727.05 509.13,743.06 466.15,753.87 422.16,759.32 377.84,759.32 333.85,753.87 290.87,743.06 249.53,727.05 210.48,706.08 174.31,680.47 141.55,650.61 112.71,616.95 88.23,580.00 68.47,540.32 53.74,498.52 44.26,455.22 40.17,411.09 41.54,366.78 48.33,322.98 60.46,280.35 77.74,239.53 99.90,201.15 126.61,165.78 157.47,133.96 192.00,106.17 229.69,82.84 269.95,64.31 312.19,50.87 355.76,42.73 400.00,40.00 443.39,42.62 486.15,50.46 527.66,63.39 567.30,81.24 604.50,103.73 638.72,130.54 669.46,161.28 696.27,195.50 718.76,232.70 736.61,272.34 749.54,313.85 757.38,356.61 760.00,400.00 757.38,443.39 749.54,486.15 736.61,527.66 718.76,567.30 696.27,604.50 669.46,638.72 638.72,669.46 604.50,696.27 567.30,718.76 527.66,736.61 486.15,749.54 443.39,757.38 400.00,760.00 356.61,757.38 313.85,749.54 272.34,736.61 232.70,718.76 195.50,696.27 161.28,669.46 130.54,638.72 103.73,604.50 81.24,567.30 63.39,527.66 50.46,486.15 42.62,443.39 40.00,400.00 42.62,356.61 50.46,313.85 63.39,272.34 81.24,232.70 103.73,195.50 130.54,161.28 161.28,130.54 195.50,103.73 232.70,81.24 272.34,63.39 313.85,50.46 356.61,42.62 400.00,40.00 442.58,42.53 484.56,50.07 525.35,62.53 564.39,79.72 601.11,101.41 635.02,127.30 665.62,157.01 692.50,190.13 715.26,226.19 733.61,264.70 747.27,305.11 756.05,346.85 759.84,389.33 758.58,431.97 752.28,474.15 741.04,515.30 725.01,554.82 704.41,592.18 679.55,626.83 650.76,658.30 618.45,686.15 583.07,709.98 545.12,729.45 505.14,744.30 463.68,754.32 421.33,759.37 378.67,759.37 336.32,754.32 294.86,744.30 254.88,729.45 216.93,709.98 181.55,686.15 149.24,658.30 120.45,626.83 95.59,592.18 74.99,554.82 58.96,515.30 47.72,474.15 41.42,431.97 40.16,389.33 43.95,346.85 52.73,305.11 66.39,264.70 84.74,226.19 107.51,190.13 134.38,157.01 164.98,127.30 198.89,101.41 235.61,79.72 274.65,62.53 315.44,50.07 357.42,42.53 400.00,40.00 441.79,42.43 483.02,49.70 523.13,61.71 561.57,78.29 597.82,99.22 631.40,124.22 661.85,152.95 688.76,185.02 711.77,220.00 730.56,257.41 744.88,296.75 754.53,337.49 759.39,379.07 759.39,420.93 754.53,462.51 744.88,503.25 730.56,542.59 711.77,580.00 688.76,614.98 661.85,647.05 631.40,675.78 597.82,700.78 561.57,721.71 523.13,738.29 483.02,750.30 441.79,757.57 400.00,760.00 358.21,757.57 316.98,750.30 276.87,738.29 238.43,721.71 202.18,700.78 168.60,675.78 138.15,647.05 111.24,614.98 88.23,580.00 69.44,542.59 55.12,503.25 45.47,462.51 40.61,420.93 40.61,379.07 45.47,337.49 55.12,296.75 69.44,257.41 88.23,220.00 111.24,185.02 138.15,152.95 168.60,124.22 202.18,99.22 238.43,78.29 276.87,61.71 316.98,49.70 358.21,42.43 400.00,40.00 441.04,42.35 481.54,49.36 520.98,60.94 558.84,76.94 594.63,97.15 627.88,121.31 658.17,149.10 685.08,180.17 708.29,214.10 727.47,250.45 742.38,288.75 752.83,328.51 758.68,369.19 759.85,410.28 756.34,451.23 748.17,491.52 735.47,530.61 718.40,568.00 697.17,603.20 672.07,635.75 643.42,665.23 611.60,691.25 577.02,713.47 540.14,731.60 501.42,745.42 461.39,754.73 420.55,759.41 379.45,759.41 338.61,754.73 298.58,745.42 259.86,731.60 222.98,713.47 188.40,691.25 156.58,665.23 127.93,635.75 102.83,603.20 81.60,568.00 64.53,530.61 51.83,491.52 43.66,451.23 40.15,410.28 41.32,369.19 47.17,328.51 57.62,288.75 72.53,250.45 91.71,214.10 114.91,180.17 141.83,149.10 172.12,121.31 205.37,97.15 241.16,76.94 279.02,60.94 318.46,49.36 358.96,42.35 400.00,40.00 400.00,40.00 440.31,42.26 480.11,49.03 518.90,60.20 556.20,75.65 591.53,95.18 624.46,118.54 654.56,145.44 681.46,175.54 704.82,208.47 724.35,243.80 739.80,281.10 750.97,319.89 757.74,359.69 760.00,400.00 757.74,440.31 750.97,480.11 739.80,518.90 724.35,556.20 704.82,591.53 681.46,624.46 654.56,654.56 624.46,681.46 591.53,704.82 556.20,724.35 518.90,739.80 480.11,750.97 440.31,757.74 400.00,760.00 359.69,757.74 319.89,750.97 281.10,739.80 243.80,724.35 208.47,704.82 175.54,681.46 145.44,654.56 118.54,624.46 95.18,591.53 75.65,556.20 60.20,518.90 49.03,480.11 42.26,440.31 40.00,400.00 42.26,359.69 49.03,319.89 60.20,281.10 75.65,243.80 95.18,208.47 118.54,175.54 145.44,145.44 175.54,118.54 208.47,95.18 243.80,75.65 281.10,60.20 319.89,49.03 359.69,42.26 400.00,40.00 439.60,42.18 478.73,48.71 516.89,59.51 553.64,74.43 588.52,93.31 621.12,115.91 651.03,141.96 677.89,171.14 701.38,203.10 721.21,237.45 737.14,273.77 748.98,311.63 756.59,350.55 759.86,390.08 758.77,429.73 753.32,469.02 743.59,507.47 729.68,544.61 711.77,580.00 690.08,613.20 664.86,643.82 636.43,671.48 605.13,695.84 571.34,716.61 535.47,733.54 497.96,746.42 459.25,755.09 419.83,759.45 380.17,759.45 340.75,755.09 302.04,746.42 264.53,733.54 228.66,716.61 194.87,695.84 163.57,671.48 135.14,643.82 109.92,613.20 88.23,580.00 70.32,544.61 56.41,507.46 46.68,469.02 41.23,429.73 40.14,390.08 43.41,350.55 51.02,311.62 62.86,273.77 78.79,237.45 98.62,203.10 122.11,171.14 148.97,141.96 178.88,115.91 211.48,93.31 246.36,74.43 283.11,59.51 321.28,48.71 360.40,42.18 400.00,40.00 438.92,42.11 477.39,48.42 514.95,58.84 551.16,73.27 585.60,91.53 617.86,113.41 647.57,138.64 674.38,166.94 697.97,197.97 718.06,231.37 734.43,266.75 746.88,303.69 755.26,341.76 759.47,380.51 759.47,419.49 755.26,458.24 746.88,496.31 734.43,533.25 718.06,568.63 697.97,602.03 674.38,633.06 647.57,661.36 617.86,686.59 585.60,708.47 551.16,726.73 514.95,741.16 477.39,751.58 438.92,757.89 400.00,760.00 361.08,757.89 322.61,751.58 285.05,741.16 248.84,726.73 214.40,708.47 182.14,686.59 152.43,661.36 125.62,633.06 102.03,602.03 81.94,568.63 65.57,533.25 53.12,496.31 44.74,458.24 40.53,419.49 40.53,380.51 44.74,341.76 53.12,303.69 65.57,266.75 81.94,231.37 102.03,197.97 125.62,166.94 152.43,138.64 182.14,113.41 214.40,91.53 248.84,73.27 285.05,58.85 322.61,48.42 361.08,42.11 400.00,40.00 400.00,40.00 438.27,42.04 476.10,48.13 513.07,58.22 548.76,72.17 582.76,89.84 614.69,111.02 644.19,135.48 670.93,162.94 694.59,193.08 714.91,225.56 731.67,260.02 744.67,296.07 753.77,333.30 758.85,371.28 759.87,409.58 756.82,447.78 749.71,485.44 738.65,522.13 723.75,557.43 705.18,590.95 683.16,622.31 657.92,651.15 629.77,677.14 599.01,699.99 565.99,719.45 531.10,735.28 494.72,747.32 457.26,755.42 419.16,759.49 380.84,759.49 342.74,755.42 305.28,747.32 268.90,735.28 234.01,719.45 200.99,699.99 170.23,677.14 142.08,651.15 116.84,622.31 94.82,590.95 76.25,557.43 61.35,522.13 50.29,485.44 43.18,447.78 40.13,409.58 41.15,371.28 46.23,333.30 55.33,296.07 68.33,260.02 85.09,225.56 105.41,193.08 129.08,162.94 155.81,135.48 185.31,111.02 217.24,89.84 251.24,72.17 286.93,58.22 323.90,48.13 361.74,42.04 400.00,40.00 437.63,41.97 474.85,47.87 511.25,57.62 546.43,71.12 580.00,88.23 611.60,108.75 640.89,132.47 667.53,159.11 691.25,188.40 711.77,220.00 728.88,253.57 742.38,288.75 752.13,325.15 758.03,362.37 760.00,400.00 758.03,437.63 752.13,474.85 742.38,511.25 728.88,546.43 711.77,580.00 691.25,611.60 667.53,640.89 640.89,667.53 611.60,691.25 580.00,711.77 546.43,728.88 511.25,742.38 474.85,752.13 437.63,758.03 400.00,760.00 362.37,758.03 325.15,752.13 288.75,742.38 253.58,728.88 220.00,711.77 188.40,691.25 159.11,667.53 132.47,640.89 108.75,611.60 88.23,580.00 71.12,546.43 57.62,511.25 47.87,474.85 41.97,437.63 40.00,400.00 41.97,362.37 47.87,325.15 57.62,288.75 71.12,253.58 88.23,220.00 108.75,188.40 132.47,159.11 159.11,132.47 188.40,108.75 220.00,88.23 253.57,71.12 288.75,57.62 325.15,47.87 362.37,41.97 400.00,40.00 400.00,40.00 437.02,41.91 473.64,47.61 509.48,57.05 544.16,70.13 577.32,86.70 608.59,106.59 637.65,129.59 664.20,155.46 687.94,183.92 708.63,214.67 726.05,247.39 740.02,281.72 750.38,317.31 757.02,353.78 759.88,390.73 758.93,427.78 754.17,464.54 745.65,500.61 733.48,535.62 717.76,569.19 698.68,600.97 676.44,630.61 651.26,657.81 623.42,682.28 593.21,703.76 560.95,722.02 526.99,736.86 491.68,748.13 455.40,755.71 418.53,759.52 381.47,759.52 344.60,755.71 308.32,748.13 273.01,736.86 239.05,722.02 206.79,703.76 176.58,682.28 148.74,657.81 123.56,630.61 101.32,600.97 82.24,569.19 66.52,535.62 54.35,500.61 45.83,464.54 41.07,427.78 40.12,390.73 42.98,353.78 49.62,317.31 59.98,281.72 73.95,247.39 91.37,214.67 112.06,183.92 135.80,155.46 162.35,129.59 191.41,106.59 222.68,86.70 255.84,70.13 290.52,57.05 326.36,47.61 362.98,41.91 400.00,40.00 400.00,40.00 436.42,41.85 472.47,47.37 507.77,56.51 541.97,69.18 574.71,85.24 605.66,104.53 634.49,126.85 660.93,151.97 684.68,179.64 705.51,209.57 723.21,241.46 737.59,274.97 748.51,309.77 755.85,345.49 759.54,381.77 759.54,418.23 755.85,454.51 748.51,490.24 737.59,525.03 723.21,558.54 705.51,590.43 684.68,620.36 660.93,648.03 634.49,673.15 605.66,695.47 574.71,714.76 541.97,730.82 507.77,743.49 472.47,752.63 436.42,758.15 400.00,760.00 363.58,758.15 327.53,752.63 292.23,743.49 258.03,730.82 225.29,714.76 194.34,695.47 165.51,673.15 139.07,648.03 115.32,620.36 94.49,590.43 76.79,558.54 62.41,525.03 51.49,490.23 44.15,454.51 40.46,418.23 40.46,381.77 44.15,345.49 51.49,309.76 62.41,274.97 76.79,241.46 94.49,209.57 115.32,179.64 139.07,151.97 165.51,126.85 194.34,104.52 225.29,85.24 258.03,69.18 292.23,56.51 327.53,47.37 363.58,41.85 400.00,40.00 435.84,41.79 471.33,47.14 506.11,55.99 539.84,68.27 572.17,83.84 602.80,102.55 631.40,124.22 657.71,148.63 681.46,175.54 702.41,204.68 720.35,235.76 735.11,268.48 746.54,302.50 754.53,337.49 758.99,373.10 759.89,408.98 757.21,444.76 750.97,480.11 741.25,514.66 728.14,548.06 711.77,580.00 692.30,610.15 669.92,638.21 644.86,663.90 617.37,686.97 587.72,707.18 556.20,724.35 523.13,738.29 488.83,748.87 453.66,755.98 417.94,759.55 382.06,759.55 346.34,755.98 311.17,748.87 276.87,738.29 243.80,724.35 212.28,707.18 182.63,686.97 155.14,663.90 130.08,638.21 107.70,610.15 88.23,580.00 71.86,548.06 58.75,514.66 49.03,480.11 42.79,444.76 40.11,408.98 41.01,373.10 45.47,337.49 53.46,302.50 64.89,268.48 79.65,235.76 97.59,204.68 118.54,175.54 142.29,148.64 168.60,124.22 197.20,102.55 227.83,83.84 260.16,68.27 293.89,55.99 328.67,47.14 364.15,41.79 400.00,40.00 400.00,40.00 435.29,41.73 470.23,46.92 504.50,55.50 537.77,67.40 569.70,82.51 600.01,100.67 628.38,121.72 654.56,145.44 678.28,171.62 699.33,199.99 717.49,230.30 732.60,262.23 744.50,295.50 753.08,329.77 758.27,364.71 760.00,400.00 758.27,435.29 753.08,470.23 744.50,504.50 732.60,537.77 717.49,569.70 699.33,600.01 678.28,628.38 654.56,654.56 628.38,678.28 600.01,699.33 569.70,717.49 537.77,732.60 504.50,744.50 470.23,753.08 435.29,758.27 400.00,760.00 364.71,758.27 329.77,753.08 295.50,744.50 262.23,732.60 230.30,717.49 199.99,699.33 171.62,678.28 145.44,654.56 121.72,628.38 100.67,600.01 82.51,569.70 67.40,537.77 55.50,504.50 46.92,470.23 41.73,435.29 40.00,400.00 41.73,364.71 46.92,329.77 55.50,295.50 67.40,262.23 82.51,230.30 100.67,200.00 121.72,171.62 145.44,145.44 171.62,121.72 199.99,100.67 230.30,82.51 262.23,67.40 295.50,55.50 329.77,46.92 364.71,41.73 400.00,40.00 400.00,40.00 434.74,41.68 469.17,46.71 502.94,55.03 535.75,66.58 567.30,81.24 597.28,98.87 625.43,119.32 651.46,142.38 675.15,167.86 696.27,195.50 714.63,225.05 730.05,256.23 742.38,288.75 751.52,322.32 757.38,356.61 759.89,391.30 759.05,426.08 754.86,460.61 747.36,494.57 736.61,527.66 722.71,559.55 705.81,589.95 686.05,618.58 663.62,645.17 638.72,669.46 611.60,691.25 582.51,710.31 551.70,726.47 519.49,739.59 486.15,749.54 452.02,756.22 417.39,759.58 382.61,759.58 347.98,756.22 313.85,749.54 280.51,739.59 248.30,726.47 217.49,710.31 188.40,691.25 161.28,669.46 136.38,645.17 113.95,618.58 94.19,589.95 77.29,559.55 63.39,527.66 52.64,494.57 45.14,460.61 40.95,426.08 40.11,391.30 42.62,356.61 48.48,322.32 57.62,288.75 69.96,256.23 85.37,225.05 103.73,195.50 124.85,167.86 148.54,142.38 174.57,119.32 202.72,98.87 232.70,81.24 264.25,66.58 297.06,55.03 330.84,46.71 365.26,41.68 400.00,40.00 434.22,41.63 468.13,46.51 501.42,54.58 533.80,65.79 564.96,80.02 594.63,97.15 622.54,117.02 648.43,139.46 672.07,164.25 693.25,191.18 711.77,220.00 727.47,250.45 740.20,282.26 749.85,315.13 756.34,348.77 759.59,382.87 759.59,417.13 756.34,451.23 749.85,484.87 740.20,517.74 727.47,549.55 711.77,580.00 693.25,608.82 672.07,635.75 648.43,660.54 622.54,682.98 594.63,702.85 564.96,719.98 533.80,734.21 501.42,745.42 468.13,753.49 434.22,758.37 400.00,760.00 365.78,758.37 331.87,753.49 298.58,745.42 266.20,734.21 235.04,719.98 205.37,702.85 177.46,682.98 151.57,660.54 127.93,635.75 106.75,608.82 88.23,580.00 72.53,549.55 59.80,517.74 50.15,484.87 43.66,451.23 40.41,417.13 40.41,382.87 43.66,348.77 50.15,315.13 59.80,282.26 72.53,250.45 88.23,220.00 106.75,191.18 127.93,164.25 151.57,139.46 177.46,117.02 205.37,97.15 235.04,80.02 266.20,65.79 298.58,54.58 331.87,46.51 365.78,41.63 400.00,40.00 400.00,40.00 433.71,41.58 467.13,46.31 499.95,54.15 531.90,65.03 562.68,78.86 592.04,95.50 619.71,114.82 645.45,136.65 669.03,160.79 690.25,187.03 708.92,215.15 724.87,244.89 737.97,275.99 748.09,308.18 755.16,341.18 759.11,374.70 759.90,408.44 757.53,442.10 752.02,475.40 743.41,508.03 731.78,539.71 717.24,570.17 699.91,599.13 679.95,626.34 657.53,651.56 632.84,674.57 606.10,695.16 577.56,713.17 547.45,728.42 516.05,740.78 483.63,750.15 450.47,756.44 416.87,759.60 383.13,759.60 349.53,756.44 316.37,750.15 283.95,740.78 252.55,728.42 222.44,713.17 193.90,695.16 167.16,674.57 142.48,651.56 120.05,626.34 100.09,599.13 82.76,570.17 68.22,539.71 56.59,508.03 47.98,475.40 42.47,442.10 40.10,408.44 40.89,374.70 44.84,341.18 51.91,308.18 62.03,275.99 75.13,244.89 91.08,215.15 109.75,187.03 130.97,160.79 154.55,136.65 180.29,114.82 207.96,95.50 237.32,78.85 268.10,65.03 300.05,54.15 332.88,46.31 366.29,41.58 400.00,40.00 433.22,41.54 466.15,46.13 498.52,53.74 530.05,64.31 560.47,77.74 589.52,93.92 616.95,112.71 642.53,133.96 666.04,157.47 687.29,183.05 706.08,210.48 722.26,239.53 735.69,269.95 746.26,301.48 753.87,333.85 758.46,366.78 760.00,400.00 758.46,433.22 753.87,466.15 746.26,498.52 735.69,530.05 722.26,560.47 706.08,589.52 687.29,616.95 666.04,642.53 642.53,666.04 616.95,687.29 589.52,706.08 560.47,722.26 530.05,735.69 498.52,746.26 466.15,753.87 433.22,758.46 400.00,760.00 366.78,758.46 333.85,753.87 301.48,746.26 269.95,735.69 239.53,722.26 210.48,706.08 183.05,687.29 157.47,666.04 133.96,642.53 112.71,616.95 93.92,589.52 77.74,560.47 64.31,530.05 53.74,498.52 46.13,466.15 41.54,433.22 40.00,400.00 41.54,366.78 46.13,333.85 53.74,301.48 64.31,269.95 77.74,239.53 93.92,210.48 112.71,183.05 133.96,157.47 157.47,133.96 183.05,112.71 210.48,93.92 239.53,77.74 269.95,64.31 301.48,53.74 333.85,46.13 366.78,41.54 400.00,40.00 400.00,40.00 432.74,41.49 465.20,45.95 497.13,53.35 528.25,63.62 558.30,76.67 587.05,92.41 614.25,110.69 639.67,131.37 663.10,154.28 684.36,179.22 703.25,206.00 719.64,234.38 733.38,264.13 744.35,295.01 752.47,326.76 757.67,359.11 759.91,391.81 759.16,424.57 755.44,457.13 748.77,489.21 739.21,520.56 726.85,550.90 711.77,580.00 694.11,607.60 674.01,633.49 651.64,657.44 627.19,679.26 600.86,698.76 572.86,715.79 543.42,730.20 512.80,741.87 481.25,750.71 449.02,756.65 416.39,759.63 383.61,759.63 350.98,756.65 318.75,750.71 287.20,741.87 256.58,730.20 227.14,715.79 199.14,698.76 172.81,679.26 148.36,657.44 125.99,633.49 105.89,607.60 88.23,580.00 73.15,550.90 60.79,520.56 51.23,489.21 44.56,457.13 40.84,424.57 40.09,391.81 42.33,359.11 47.53,326.76 55.65,295.01 66.62,264.13 80.36,234.38 96.75,206.00 115.64,179.22 136.90,154.28 160.33,131.37 185.75,110.69 212.95,92.41 241.70,76.67 271.75,63.62 302.87,53.35 334.80,45.95 367.26,41.49 400.00,40.00 400.00,40.00 432.27,41.45 464.28,45.79 495.77,52.97 526.49,62.96 556.20,75.65 584.64,90.96 611.60,108.75 636.86,128.89 660.21,151.22 681.46,175.54 700.45,201.68 717.01,229.41 731.03,258.51 742.38,288.75 750.97,319.89 756.74,351.68 759.64,383.85 759.64,416.15 756.74,448.32 750.97,480.11 742.38,511.25 731.03,541.49 717.01,570.59 700.45,598.32 681.46,624.46 660.21,648.78 636.86,671.11 611.60,691.25 584.64,709.04 556.20,724.35 526.49,737.04 495.77,747.03 464.28,754.21 432.27,758.55 400.00,760.00 367.73,758.55 335.72,754.21 304.23,747.03 273.50,737.04 243.80,724.35 215.36,709.04 188.40,691.25 163.14,671.11 139.79,648.78 118.54,624.46 99.55,598.32 82.99,570.59 68.97,541.49 57.62,511.25 49.03,480.11 43.26,448.32 40.36,416.15 40.36,383.85 43.26,351.68 49.03,319.89 57.62,288.75 68.97,258.51 82.99,229.41 99.55,201.68 118.54,175.54 139.79,151.22 163.14,128.89 188.40,108.75 215.36,90.96 243.80,75.65 273.51,62.96 304.23,52.97 335.72,45.79 367.73,41.45 400.00,40.00 431.82,41.41 463.38,45.62 494.46,52.61 524.79,62.32 554.14,74.67 582.29,89.57 609.02,106.89 634.10,126.51 657.36,148.27 678.60,172.00 697.66,197.52 714.39,224.62 728.66,253.09 740.36,282.71 749.39,313.25 755.69,344.47 759.21,376.12 759.91,407.96 757.80,439.74 752.89,471.21 745.21,502.12 734.84,532.23 721.84,561.30 706.32,589.12 688.41,615.45 668.24,640.10 645.97,662.86 621.78,683.57 595.85,702.07 568.38,718.19 539.60,731.83 509.73,742.87 479.00,751.23 447.65,756.83 415.92,759.65 384.08,759.65 352.35,756.83 321.00,751.23 290.27,742.87 260.40,731.83 231.62,718.19 204.15,702.07 178.22,683.58 154.03,662.86 131.76,640.10 111.59,615.45 93.68,589.12 78.16,561.30 65.16,532.23 54.79,502.12 47.11,471.21 42.20,439.74 40.09,407.96 40.79,376.12 44.31,344.47 50.61,313.25 59.64,282.71 71.34,253.09 85.61,224.62 102.34,197.52 121.40,172.00 142.64,148.27 165.90,126.51 190.98,106.89 217.71,89.57 245.86,74.67 275.21,62.32 305.54,52.61 336.62,45.62 368.18,41.41 400.00,40.00 431.38,41.37 462.51,45.47 493.17,52.27 523.13,61.71 552.14,73.73 580.00,88.23 606.49,105.11 631.40,124.22 654.56,145.44 675.78,168.60 694.89,193.51 711.77,220.00 726.27,247.86 738.29,276.87 747.73,306.83 754.53,337.49 758.63,368.62 760.00,400.00 758.63,431.38 754.53,462.51 747.73,493.17 738.29,523.13 726.27,552.14 711.77,580.00 694.89,606.49 675.78,631.40 654.56,654.56 631.40,675.78 606.49,694.89 580.00,711.77 552.14,726.27 523.13,738.29 493.17,747.73 462.51,754.53 431.38,758.63 400.00,760.00 368.62,758.63 337.49,754.53 306.83,747.73 276.87,738.29 247.86,726.27 220.00,711.77 193.51,694.89 168.60,675.78 145.44,654.56 124.22,631.40 105.11,606.49 88.23,580.00 73.73,552.14 61.71,523.13 52.27,493.17 45.47,462.51 41.37,431.38 40.00,400.00 41.37,368.62 45.47,337.49 52.27,306.83 61.71,276.87 73.73,247.86 88.23,220.00 105.11,193.51 124.22,168.60 145.44,145.44 168.60,124.22 193.51,105.11 220.00,88.23 247.86,73.73 276.87,61.71 306.82,52.27 337.49,45.47 368.62,41.37 400.00,40.00 400.00,40.00 430.95,41.33 461.67,45.32 491.93,51.93 521.51,61.13 550.19,72.83 577.76,86.95 604.01,103.39 628.76,122.02 651.80,142.72 672.99,165.32 692.15,189.65 709.16,215.55 723.87,242.81 736.18,271.23 746.01,300.61 753.27,330.72 757.92,361.34 759.92,392.25 759.25,423.22 755.92,454.02 749.96,484.42 741.41,514.19 730.33,543.12 716.80,570.98 700.93,597.58 682.83,622.72 662.64,646.21 640.50,667.88 616.58,687.56 591.06,705.11 564.13,720.41 535.97,733.33 506.82,743.79 476.87,751.70 446.35,757.00 415.49,759.67 384.51,759.67 353.65,757.00 323.13,751.70 293.18,743.79 264.03,733.33 235.87,720.41 208.94,705.11 183.42,687.56 159.50,667.88 137.36,646.21 117.17,622.72 99.07,597.58 83.20,570.98 69.67,543.12 58.59,514.19 50.04,484.42 44.08,454.02 40.75,423.22 40.08,392.25 42.08,361.34 46.73,330.72 53.99,300.61 63.82,271.23 76.13,242.81 90.84,215.55 107.85,189.65 127.01,165.32 148.19,142.72 171.24,122.02 195.99,103.39 222.24,86.95 249.81,72.83 278.49,61.13 308.07,51.93 338.33,45.32 369.05,41.33 400.00,40.00 400.00,40.00 430.53,41.30 460.84,45.18 490.71,51.62 519.93,60.56 548.28,71.96 575.57,85.71 601.59,101.74 626.16,119.91 649.10,140.10 670.24,162.16 689.44,185.93 706.55,211.25 721.45,237.93 734.04,265.77 744.22,294.58 751.92,324.16 757.08,354.27 759.68,384.72 759.68,415.28 757.08,445.73 751.92,475.84 744.22,505.42 734.04,534.23 721.45,562.07 706.55,588.75 689.44,614.07 670.24,637.84 649.10,659.90 626.16,680.09 601.59,698.26 575.57,714.29 548.28,728.04 519.93,739.44 490.71,748.38 460.84,754.82 430.53,758.70 400.00,760.00 369.47,758.70 339.16,754.82 309.29,748.38 280.07,739.44 251.72,728.04 224.43,714.28 198.41,698.26 173.84,680.09 150.90,659.90 129.76,637.84 110.56,614.07 93.45,588.75 78.55,562.07 65.96,534.23 55.78,505.42 48.08,475.84 42.92,445.73 40.32,415.28 40.32,384.72 42.92,354.27 48.08,324.15 55.78,294.58 65.96,265.77 78.55,237.93 93.45,211.25 110.56,185.93 129.76,162.16 150.90,140.09 173.84,119.91 198.41,101.74 224.43,85.71 251.72,71.96 280.07,60.56 309.29,51.62 339.16,45.18 369.47,41.30 "/>
</g>
</svg>